# xmcd CD database file
#
# Track frame offsets:
#	150
#	9514
#	29970
#	55984
#	72791
#	92285
#	123998
#	132562
#	172997
#	187300
#	214037
#	242259
#	265736
#
# Disc length: 3800 seconds
#
# Revision: 0
# Processed by: cddbd v1.5.1PL0 Copyright (c) Steve Scherf et al.
# Submitted via: CDex 1.60beta1
#
DISCID=b50ed60d
DTITLE=Desert Voices - Legacy: A Decade Of Changing Lives Through Song
DYEAR=1999
DGENRE=Jazz
TTITLE0=Aretha Medley
TTITLE1=Joan Of Arc
TTITLE2=Brother Love, Sister Love
TTITLE3=Seasons Of Love
TTITLE4=At The Same Time
TTITLE5=Miracle
TTITLE6=Gift To Be Simple
TTITLE7=Hot Medley
TTITLE8=If I Had Only Known
TTITLE9=Motherless Child
TTITLE10=El Jardin
TTITLE11=And If?
TTITLE12=How Can I Keep From Singing
EXTD=YEAR: 1999
EXTT0=
EXTT1=
EXTT2=
EXTT3=
EXTT4=
EXTT5=
EXTT6=
EXTT7=
EXTT8=
EXTT9=
EXTT10=
EXTT11=
EXTT12=
PLAYORDER=
